# xmcd CD database file
#
# Track frame offsets:
#	150
#	31204
#	51003
#	68261
#	90369
#	106603
#	127100
#	150034
#	181227
#	196713
#	214090
#	232527
#	249053
#	270691
#	289192
#
# Disc length: 4076 seconds
#
# Revision: 2
# Processed by: cddbd v1.5.2PL0 Copyright (c) Steve Scherf et al.
# Submitted via: CDex 1.70beta2
#
DISCID=a90fea0f
DTITLE=Fruko Y Sus Tesos - The best
DYEAR=2005
DGENRE=Salsa
TTITLE0=Mosaico navideño
TTITLE1=El polizón
TTITLE2=Si yo encontrara un amor
TTITLE3=El Preso
TTITLE4=Soy guajiro del monte
TTITLE5=Descarga espectacular
TTITLE6=Salsa brava
TTITLE7=Mosaico santero
TTITLE8=El patillero
TTITLE9=Mi rio cali
TTITLE10=Charanga campesina
TTITLE11=Toma jabón pa'que laves
TTITLE12=El hijo de atocha
TTITLE13=El cocinero mayor
TTITLE14=Tania
EXTD=YEAR: 2005
EXTT0=
EXTT1=
EXTT2=
EXTT3=
EXTT4=
EXTT5=
EXTT6=
EXTT7=
EXTT8=
EXTT9=
EXTT10=
EXTT11=
EXTT12=
EXTT13=
EXTT14=
PLAYORDER=
